<svg height="612" width="1350" xmlns="http://www.w3.org/2000/svg" xmlns:xlink="http://www.w3.org/1999/xlink"><filter id="a"><feGaussianBlur stdDeviation="2.5"/><feOffset dx="0" dy="1" result="blur"/><feFlood flood-opacity=".2"/><feComposite in2="blur" operator="in" result="colorShadow"/><feComposite in="SourceGraphic" in2="colorShadow" operator="over"/></filter><path d="m0 0h1350v612h-1350z" fill="#fff"/><g filter="url(#a)"><rect fill="#fff" height="76" rx="4" width="184" x="565" y="43"/></g><path d="m747.5 81v34c0 1.38-1.12 2.5-2.5 2.5h-176c-1.38 0-2.5-1.12-2.5-2.5v-68c0-1.38 1.12-2.5 2.5-2.5h176c1.38 0 2.5 1.12 2.5 2.5zm0 0" fill="#cce6bd" stroke="#80c257" stroke-miterlimit="10" stroke-width="3"/><text fill="#2b303b" fill-opacity=".9" font-family="HelveticaNeue, 'Helvetica Neue', Helvetica, Arial, sans-serif" font-size="13" text-anchor="middle" x="630.16" y="72"><tspan x="656.29" y="84">Endpoint</tspan></text><g filter="url(#a)"><rect fill="#fff" height="76" rx="4" width="184" x="1123" y="331"/></g><rect fill="#add6f5" height="73" rx="2.6" stroke="#339ce8" stroke-miterlimit="10" stroke-width="3" width="181" x="1124.5" y="332.5"/><text fill="#2b303b" fill-opacity=".9" font-family="HelveticaNeue, 'Helvetica Neue', Helvetica, Arial, sans-serif" font-size="13" text-anchor="middle" x="1159.34" y="360"><tspan x="1214.61" y="372">ResponseEndpoint</tspan></text><g filter="url(#a)"><rect fill="#fff" height="76" rx="4" width="292" x="961" y="493"/></g><rect fill="#fce6b3" height="73" rx="2.4" stroke="#fac442" stroke-miterlimit="10" stroke-width="3" width="289" x="962.5" y="494.5"/><text fill="#2b303b" fill-opacity=".9" font-family="HelveticaNeue, 'Helvetica Neue', Helvetica, Arial, sans-serif" font-size="13" text-anchor="middle" x="1027.21" y="522"><tspan x="1106.67" y="534">RequestResponseEndpoint</tspan></text><g filter="url(#a)"><rect fill="#fff" height="76" rx="4" width="184" x="259" y="187"/></g><path d="m441.5 225v34c0 1.38-1.12 2.5-2.5 2.5h-176c-1.38 0-2.5-1.12-2.5-2.5v-68c0-1.38 1.12-2.5 2.5-2.5h176c1.38 0 2.5 1.12 2.5 2.5zm0 0" fill="#add6f5" stroke="#339ce8" stroke-miterlimit="10" stroke-width="3"/><text fill="#2b303b" fill-opacity=".9" font-family="HelveticaNeue, 'Helvetica Neue', Helvetica, Arial, sans-serif" font-size="13" text-anchor="middle" x="302.85" y="216"><tspan x="350.05" y="228">UploadEndpoint</tspan></text><g filter="url(#a)"><rect fill="#fff" height="76" rx="4" width="184" x="43" y="187"/></g><path d="m225.5 225v34c0 1.38-1.12 2.5-2.5 2.5h-176c-1.38 0-2.5-1.12-2.5-2.5v-68c0-1.38 1.12-2.5 2.5-2.5h176c1.38 0 2.5 1.12 2.5 2.5zm0 0" fill="#add6f5" stroke="#339ce8" stroke-miterlimit="10" stroke-width="3"/><text fill="#2b303b" fill-opacity=".9" font-family="HelveticaNeue, 'Helvetica Neue', Helvetica, Arial, sans-serif" font-size="13" text-anchor="middle" x="94.72" y="216"><tspan x="134.45" y="228">DataEndpoint</tspan></text><g filter="url(#a)"><rect fill="#fff" height="76" rx="4" width="184" x="475" y="187"/></g><path d="m657.5 225v34c0 1.38-1.12 2.5-2.5 2.5h-176c-1.38 0-2.5-1.12-2.5-2.5v-68c0-1.38 1.12-2.5 2.5-2.5h176c1.38 0 2.5 1.12 2.5 2.5zm0 0" fill="#add6f5" stroke="#339ce8" stroke-miterlimit="10" stroke-width="3"/><text fill="#2b303b" fill-opacity=".9" font-family="HelveticaNeue, 'Helvetica Neue', Helvetica, Arial, sans-serif" font-size="13" text-anchor="middle" x="513.44" y="216"><tspan x="565.34" y="228">MultipartEndpoint</tspan></text><g filter="url(#a)"><rect fill="#fff" height="76" rx="4" width="184" x="691" y="187"/></g><path d="m873.5 225v34c0 1.38-1.12 2.5-2.5 2.5h-176c-1.38 0-2.5-1.12-2.5-2.5v-68c0-1.38 1.12-2.5 2.5-2.5h176c1.38 0 2.5 1.12 2.5 2.5zm0 0" fill="#add6f5" stroke="#339ce8" stroke-miterlimit="10" stroke-width="3"/><text fill="#2b303b" fill-opacity=".9" font-family="HelveticaNeue, 'Helvetica Neue', Helvetica, Arial, sans-serif" font-size="13" text-anchor="middle" x="718.64" y="216"><tspan x="783.53" y="228">URLEncodedEndpoint</tspan></text><g filter="url(#a)"><rect fill="#fff" height="76" rx="4" width="184" x="907" y="187"/></g><path d="m1089.5 225v34c0 1.38-1.12 2.5-2.5 2.5h-176c-1.38 0-2.5-1.12-2.5-2.5v-68c0-1.38 1.12-2.5 2.5-2.5h176c1.38 0 2.5 1.12 2.5 2.5zm0 0" fill="#add6f5" stroke="#339ce8" stroke-miterlimit="10" stroke-width="3"/><text fill="#2b303b" fill-opacity=".9" font-family="HelveticaNeue, 'Helvetica Neue', Helvetica, Arial, sans-serif" font-size="13" text-anchor="middle" x="941.22" y="216"><tspan x="998.29" y="228">EncodableEndpoint</tspan></text><g filter="url(#a)"><rect fill="#fff" height="76" rx="4" width="184" x="907" y="331"/></g><path d="m1089.5 369v34c0 1.38-1.12 2.5-2.5 2.5h-176c-1.38 0-2.5-1.12-2.5-2.5v-68c0-1.38 1.12-2.5 2.5-2.5h176c1.38 0 2.5 1.12 2.5 2.5zm0 0" fill="#add6f5" stroke="#339ce8" stroke-miterlimit="10" stroke-width="3"/><text fill="#2b303b" fill-opacity=".9" font-family="HelveticaNeue, 'Helvetica Neue', Helvetica, Arial, sans-serif" font-size="13" text-anchor="middle" x="948.02" y="360"><tspan x="998.35" y="372">RequestEndpoint</tspan></text><g style="stroke-miterlimit:10;stroke:#121726;stroke-width:2;stroke-linecap:round;stroke-linejoin:round;fill:none"><path d="m1215 327v-246h-462"/><path d="m760 74-7 7 7 7"/><path d="m1107 489v-48h108v-30"/><path d="m1222 418-7-7-7 7"/><path d="m351 183v-102h210"/><path d="m554 88 7-7-7-7"/><path d="m135 183v-102h426"/><path d="m554 88 7-7-7-7"/><path d="m567 183v-30h90v-30"/><path d="m664 130-7-7-7 7"/><path d="m783 183v-30h-126v-30"/><path d="m664 130-7-7-7 7"/><path d="m999 183v-102h-246"/><path d="m760 74-7 7 7 7"/><path d="m1107 489v-48h-108v-30"/><path d="m1006 418-7-7-7 7"/><path d="m999 327v-60"/><path d="m1006 274-7-7-7 7"/></g></svg>