<svg height="450" width="1098" xmlns="http://www.w3.org/2000/svg" xmlns:xlink="http://www.w3.org/1999/xlink"><filter id="a"><feGaussianBlur stdDeviation="2.5"/><feOffset dx="0" dy="1" result="blur"/><feFlood flood-opacity=".2"/><feComposite in2="blur" operator="in" result="colorShadow"/><feComposite in="SourceGraphic" in2="colorShadow" operator="over"/></filter><clipPath id="b"><path d="m109 319h16v9h-16z"/></clipPath><path d="m0 0h1098v450h-1098z" fill="#fff"/><g filter="url(#a)"><rect fill="#fff" height="76" rx="4" width="148" x="43" y="331"/></g><path d="m189.5 369v34c0 1.38-1.12 2.5-2.5 2.5h-140c-1.38 0-2.5-1.12-2.5-2.5v-68c0-1.38 1.12-2.5 2.5-2.5h140c1.38 0 2.5 1.12 2.5 2.5zm0 0" fill="#add6f5" stroke="#339ce8" stroke-miterlimit="10" stroke-width="3"/><text fill="#2b303b" fill-opacity=".9" font-family="HelveticaNeue, 'Helvetica Neue', Helvetica, Arial, sans-serif" font-size="13" text-anchor="middle" x="90.16" y="360"><tspan x="116.29" y="372">Endpoint</tspan></text><g filter="url(#a)"><rect fill="#fff" height="76" rx="4" width="148" x="205" y="331"/></g><path d="m351.5 369v34c0 1.38-1.12 2.5-2.5 2.5h-140c-1.38 0-2.5-1.12-2.5-2.5v-68c0-1.38 1.12-2.5 2.5-2.5h140c1.38 0 2.5 1.12 2.5 2.5zm0 0" fill="#add6f5" stroke="#339ce8" stroke-miterlimit="10" stroke-width="3"/><text fill="#2b303b" fill-opacity=".9" font-family="HelveticaNeue, 'Helvetica Neue', Helvetica, Arial, sans-serif" font-size="13" text-anchor="middle" x="252.16" y="360"><tspan x="278.29" y="372">Endpoint</tspan></text><g filter="url(#a)"><rect fill="#fff" height="76" rx="4" width="148" x="367" y="331"/></g><rect fill="#add6f5" height="73" rx="2.4" stroke="#339ce8" stroke-miterlimit="10" stroke-width="3" width="145" x="368.5" y="332.5"/><text fill="#2b303b" fill-opacity=".9" font-family="HelveticaNeue, 'Helvetica Neue', Helvetica, Arial, sans-serif" font-size="13" text-anchor="middle" x="414.16" y="360"><tspan x="440.29" y="372">Endpoint</tspan></text><g filter="url(#a)"><rect fill="#fff" height="76" rx="4" width="148" x="205" y="187"/></g><path d="m351.5 225v34c0 1.38-1.12 2.5-2.5 2.5h-140c-1.38 0-2.5-1.12-2.5-2.5v-68c0-1.38 1.12-2.5 2.5-2.5h140c1.38 0 2.5 1.12 2.5 2.5zm0 0" fill="#cce6bd" stroke="#80c257" stroke-miterlimit="10" stroke-width="3"/><text fill="#2b303b" fill-opacity=".9" font-family="HelveticaNeue, 'Helvetica Neue', Helvetica, Arial, sans-serif" font-size="13" text-anchor="middle" x="260.41" y="216"><tspan x="279.18" y="228">Server</tspan></text><g filter="url(#a)"><rect fill="#fff" height="76" rx="4" width="148" x="583" y="331"/></g><path d="m729.5 369v34c0 1.38-1.12 2.5-2.5 2.5h-140c-1.38 0-2.5-1.12-2.5-2.5v-68c0-1.38 1.12-2.5 2.5-2.5h140c1.38 0 2.5 1.12 2.5 2.5zm0 0" fill="#add6f5" stroke="#339ce8" stroke-miterlimit="10" stroke-width="3"/><text fill="#2b303b" fill-opacity=".9" font-family="HelveticaNeue, 'Helvetica Neue', Helvetica, Arial, sans-serif" font-size="13" text-anchor="middle" x="630.16" y="360"><tspan x="656.29" y="372">Endpoint</tspan></text><g filter="url(#a)"><rect fill="#fff" height="76" rx="4" width="148" x="745" y="331"/></g><path d="m891.5 369v34c0 1.38-1.12 2.5-2.5 2.5h-140c-1.38 0-2.5-1.12-2.5-2.5v-68c0-1.38 1.12-2.5 2.5-2.5h140c1.38 0 2.5 1.12 2.5 2.5zm0 0" fill="#add6f5" stroke="#339ce8" stroke-miterlimit="10" stroke-width="3"/><text fill="#2b303b" fill-opacity=".9" font-family="HelveticaNeue, 'Helvetica Neue', Helvetica, Arial, sans-serif" font-size="13" text-anchor="middle" x="792.16" y="360"><tspan x="818.29" y="372">Endpoint</tspan></text><g filter="url(#a)"><rect fill="#fff" height="76" rx="4" width="148" x="907" y="331"/></g><path d="m1053.5 369v34c0 1.38-1.12 2.5-2.5 2.5h-140c-1.38 0-2.5-1.12-2.5-2.5v-68c0-1.38 1.12-2.5 2.5-2.5h140c1.38 0 2.5 1.12 2.5 2.5zm0 0" fill="#add6f5" stroke="#339ce8" stroke-miterlimit="10" stroke-width="3"/><text fill="#2b303b" fill-opacity=".9" font-family="HelveticaNeue, 'Helvetica Neue', Helvetica, Arial, sans-serif" font-size="13" text-anchor="middle" x="954.16" y="360"><tspan x="980.29" y="372">Endpoint</tspan></text><g filter="url(#a)"><rect fill="#fff" height="76" rx="4" width="148" x="745" y="187"/></g><path d="m891.5 225v34c0 1.38-1.12 2.5-2.5 2.5h-140c-1.38 0-2.5-1.12-2.5-2.5v-68c0-1.38 1.12-2.5 2.5-2.5h140c1.38 0 2.5 1.12 2.5 2.5zm0 0" fill="#cce6bd" stroke="#80c257" stroke-miterlimit="10" stroke-width="3"/><text fill="#2b303b" fill-opacity=".9" font-family="HelveticaNeue, 'Helvetica Neue', Helvetica, Arial, sans-serif" font-size="13" text-anchor="middle" x="800.41" y="216"><tspan x="819.18" y="228">Server</tspan></text><g filter="url(#a)"><rect fill="#fff" height="76" rx="4" width="148" x="475" y="43"/></g><rect fill="#fce6b3" height="73" rx="2.4" stroke="#fac442" stroke-miterlimit="10" stroke-width="3" width="145" x="476.5" y="44.5"/><text fill="#2b303b" fill-opacity=".9" font-family="HelveticaNeue, 'Helvetica Neue', Helvetica, Arial, sans-serif" font-size="13" text-anchor="middle" x="520.56" y="72"><tspan x="549.21" y="84">API Client</tspan></text><path d="m201 225h-84v102" style="stroke:#121726;stroke-width:2;stroke-linecap:round;stroke-linejoin:round;stroke-miterlimit:10;fill:none"/><g clip-path="url(#b)"><path d="m110 320 7 7 7-7" style="stroke:#121726;stroke-width:2;stroke-linecap:round;stroke-linejoin:round;stroke-miterlimit:10;fill:none"/></g><g style="stroke-miterlimit:10;stroke:#121726;stroke-width:2;stroke-linecap:round;stroke-linejoin:round;fill:none"><path d="m279 267v60"/><path d="m272 320 7 7 7-7"/><path d="m357 225h84v102"/><path d="m434 320 7 7 7-7"/><path d="m741 225h-84v102"/><path d="m650 320 7 7 7-7"/><path d="m819 267v60"/><path d="m812 320 7 7 7-7"/><path d="m897 225h84v102"/><path d="m974 320 7 7 7-7"/><path d="m471 81h-192v102"/><path d="m272 176 7 7 7-7"/><path d="m627 81h192v102"/><path d="m812 176 7 7 7-7"/></g></svg>